HIERARCHY
ROOT Hips
{
	OFFSET 0.00000 0.00000 0.00000
	CHANNELS 6 Xposition Yposition Zposition Zrotation Yrotation Xrotation 
	JOINT LHipJoint
	{
		OFFSET 0 0 0
		CHANNELS 3 Zrotation Yrotation Xrotation
		JOINT LeftHip
		{
			OFFSET 1.73240 -1.89999 0.57994
			CHANNELS 3 Zrotation Yrotation Xrotation
			JOINT LeftKnee
			{
				OFFSET 2.43106 -6.67930 0.00000
				CHANNELS 3 Zrotation Yrotation Xrotation
				JOINT LeftAnkle
				{
					OFFSET 2.78854 -7.66147 0.00000
					CHANNELS 3 Zrotation Yrotation Xrotation
					JOINT LeftToe
					{
						OFFSET 0.17314 -0.47571 2.01064
						CHANNELS 3 Zrotation Yrotation Xrotation
						End Site
						{
							OFFSET 0.00000 -0.00000 1.04147
						}
					}
				}
			}
		}
	}
	JOINT RHipJoint
	{
		OFFSET 0 0 0
		CHANNELS 3 Zrotation Yrotation Xrotation
		JOINT RightHip
		{
			OFFSET -1.57078 -1.89998 0.57994
			CHANNELS 3 Zrotation Yrotation Xrotation
			JOINT RightKnee
			{
				OFFSET -2.50166 -6.87326 0.00000
				CHANNELS 3 Zrotation Yrotation Xrotation
				JOINT RightAnkle
				{
					OFFSET -2.77304 -7.61886 0.00000
					CHANNELS 3 Zrotation Yrotation Xrotation
					JOINT RightToe
					{
						OFFSET -0.23513 -0.64602 2.11039
						CHANNELS 3 Zrotation Yrotation Xrotation
						End Site
						{
							OFFSET -0.00000 -0.00000 1.10597
						}
					}
				}
			}
		}
	}
	JOINT lowerback
	{
		OFFSET 0 0 0
		CHANNELS 3 Zrotation Yrotation Xrotation
		JOINT Chest
		{
			OFFSET -0.00908 2.00015 -0.35323
			CHANNELS 3 Zrotation Yrotation Xrotation
			JOINT Chest2
			{
				OFFSET 0.05647 2.02258 0.04270
				CHANNELS 3 Zrotation Yrotation Xrotation
				JOINT lowerneck
				{
					OFFSET 0 0 0
					CHANNELS 3 Zrotation Yrotation Xrotation
					JOINT Neck
					{
						OFFSET -0.02074 1.73711 0.13117
						CHANNELS 3 Zrotation Yrotation Xrotation
						JOINT Head
						{
							OFFSET -0.02359 1.73615 -0.24320
							CHANNELS 3 Zrotation Yrotation Xrotation
							End Site
							{
								OFFSET -0.00579 1.75982 -0.09688
							}
						}
					}
				}
				JOINT LeftCollar
				{
					OFFSET 0 0 0
					CHANNELS 3 Zrotation Yrotation Xrotation
					JOINT LeftShoulder
					{
						OFFSET 3.20537 1.11432 -0.27680
CHANNELS 3 Zrotation Xrotation Yrotation
						JOINT LeftElbow
						{
OFFSET 0 -5.059230 -0.000000
CHANNELS 3 Zrotation Xrotation Yrotation
							JOINT LeftWrist
							{
OFFSET 0 -3.519960 0.000000
CHANNELS 3 Zrotation Xrotation Yrotation
								JOINT lhand
								{
									OFFSET 0 0 0
CHANNELS 3 Zrotation Xrotation Yrotation
									JOINT LFingers
									{
OFFSET 0 -0.652380 0.000000
CHANNELS 3 Zrotation Xrotation Yrotation
										End Site
										{
OFFSET 0 -0.525960 0.000000
										}
									}
								}
								JOINT LThumb
								{
OFFSET 0 0.000000 0.000000
CHANNELS 3 Zrotation Xrotation Yrotation
									End Site
									{
OFFSET 0 -0.533990 0.533990
									}
								}
							}
						}
					}
				}
				JOINT RightCollar
				{
					OFFSET 0 0 0
					CHANNELS 3 Zrotation Yrotation Xrotation
					JOINT RightShoulder
					{
						OFFSET -2.96983 1.42602 -0.37449
CHANNELS 3 Zrotation Xrotation Yrotation
						JOINT RightElbow
						{
OFFSET 0 -5.408670 0.000000
CHANNELS 3 Zrotation Xrotation Yrotation
							JOINT RightWrist
							{
OFFSET 0 -3.129640 0.000000
CHANNELS 3 Zrotation Xrotation Yrotation
								JOINT rhand
								{
									OFFSET 0 0 0
CHANNELS 3 Zrotation Xrotation Yrotation
									JOINT RFingers
									{
OFFSET 0 -0.832710 0.000000
CHANNELS 3 Zrotation Xrotation Yrotation
										End Site
										{
OFFSET 0 -0.671350 0.000000
										}
									}
								}
								JOINT RThumb
								{
OFFSET 0 0.000000 0.000000
CHANNELS 3 Zrotation Xrotation Yrotation
									End Site
									{
OFFSET 0 -0.681600 0.681600
									}
								}
							}
						}
					}
				}
			}
		}
	}
}
MOTION
Frames: 6
Frame Time: 0.008333333333333333
4.508762 17.564673 2.823925 -3.009498 -19.212133 -1.364782 0.000000 0.000000 0.000000 -2.561658 -14.287644 -24.718455 2.703311 10.194628 29.612982 -0.083247 8.427274 -10.209250 0.484226 -4.457438 -12.368081 0.000000 0.000000 0.000000 24.553938 13.463500 -4.452162 -4.651919 -12.980366 39.295554 -1.449292 -6.068911 -25.647674 -0.004983 0.456401 -1.254062 2.603452 -0.356315 29.473085 8.660243 1.228501 4.882213 7.436693 0.512799 -10.380283 -4.991556 -4.561432 -9.505492 -5.638515 -4.087618 28.597539 -1.671671 -3.086873 10.778326 0.000000 0.000000 0.000000 -2.117718 18.463954 -17.713780 34.701909 -44.597977 14.603752 13.699729 11.587855 -42.618332 0.000000 0.000000 0.000000 -7.125000 0.000000 0.000000 -35.588067 70.494626 22.578585 0.000000 0.000000 0.000000 -21.116419 -14.063003 -28.571966 -12.423122 -20.435110 -2.248550 -12.778526 2.680161 2.769147 0.000000 0.000000 0.000000 7.125000 0.000000 0.000000 11.160404 32.675830 3.425342
4.509007 17.567669 2.699877 -2.703087 -19.204571 -1.456986 0.000000 0.000000 0.000000 -3.202319 -14.004653 -24.922574 2.973434 10.644276 31.097186 -0.029104 7.777094 -10.453633 0.444414 -4.267939 -11.833126 0.000000 0.000000 0.000000 24.271331 13.740639 -5.135146 -4.765055 -13.113574 39.796157 -1.414301 -6.155527 -25.437013 -0.005555 0.480884 -1.321394 2.363925 -0.388130 29.559452 8.627134 1.108087 4.954013 7.575896 0.461578 -10.330879 -4.916378 -4.516868 -9.697673 -5.661674 -4.021219 28.523777 -1.687978 -3.051570 10.785563 0.000000 0.000000 0.000000 -2.229796 18.268880 -17.411839 34.924287 -44.757565 14.760197 14.087313 11.264026 -42.781118 0.000000 0.000000 0.000000 -7.125000 0.000000 0.000000 -35.491320 70.749546 22.703145 0.000000 0.000000 0.000000 -20.667505 -14.039857 -28.470633 -12.829658 -21.035617 -2.392833 -13.255657 1.006661 2.494801 0.000000 0.000000 0.000000 7.125000 0.000000 0.000000 10.744675 32.413468 3.360365
4.510755 17.569883 2.573792 -2.485429 -19.180057 -1.488778 0.000000 0.000000 0.000000 -3.742280 -13.712629 -25.194734 3.257773 11.096709 32.611632 0.032675 7.076969 -10.826143 0.379859 -3.957512 -10.957243 0.000000 0.000000 0.000000 24.059089 14.001728 -5.883679 -4.875607 -13.242040 40.281853 -1.375342 -6.208311 -25.174450 -0.005124 0.422722 -1.161634 2.206472 -0.439099 29.647814 8.621182 0.993936 5.000680 7.698339 0.411698 -10.309572 -4.818665 -4.468177 -9.901164 -5.730181 -3.939886 28.477105 -1.723934 -3.013137 10.803771 0.000000 0.000000 0.000000 -2.368282 18.112767 -17.090801 35.197673 -44.952177 14.953042 14.402478 10.790650 -43.182060 0.000000 0.000000 0.000000 -7.125000 0.000000 0.000000 -35.956190 71.159278 23.337797 0.000000 0.000000 0.000000 -20.211013 -14.014865 -28.520333 -13.262161 -21.668491 -2.550429 -13.711833 -0.506448 2.116082 0.000000 0.000000 0.000000 7.125000 0.000000 0.000000 10.333178 32.044175 3.322569
4.514437 17.569816 2.441509 -2.499420 -19.098920 -1.388829 0.000000 0.000000 0.000000 -4.029072 -13.364181 -25.637508 3.559963 11.546713 34.151365 0.089645 6.395537 -11.147880 0.353483 -3.819137 -10.568360 0.000000 0.000000 0.000000 24.074085 14.257859 -6.733411 -4.978970 -13.359796 40.731254 -1.339258 -6.193315 -24.888930 -0.000973 0.091211 -0.250648 2.320881 -0.461459 29.827159 8.742955 1.040731 4.876832 7.759794 0.435598 -10.534641 -4.909911 -4.501248 -9.713250 -5.823034 -3.961041 28.376486 -1.735248 -3.039111 10.730399 0.000000 0.000000 0.000000 -2.560615 18.229853 -17.049161 35.570422 -45.214668 15.216939 14.604049 10.052851 -43.734824 0.000000 0.000000 0.000000 -7.125000 0.000000 0.000000 -36.891946 71.641549 24.367276 0.000000 0.000000 0.000000 -19.891418 -13.594451 -28.765686 -13.803745 -22.451947 -2.753741 -14.116047 -2.039687 1.777474 0.000000 0.000000 0.000000 7.125000 0.000000 0.000000 9.971810 31.711325 3.284276
4.518580 17.584151 2.321475 -2.240956 -19.025265 -1.415627 0.000000 0.000000 0.000000 -4.707430 -12.988313 -25.938826 3.872402 11.981700 35.676645 0.130522 5.932798 -11.420108 0.437811 -4.223419 -11.709351 0.000000 0.000000 0.000000 23.764911 14.326459 -7.510314 -5.073364 -13.465508 41.137911 -1.307993 -6.136293 -24.610585 -0.000359 -0.083469 0.229308 2.283122 -0.477412 29.940338 8.745976 1.029457 4.766360 7.794547 0.436382 -10.707586 -5.096793 -4.558356 -9.381522 -5.753315 -4.055794 28.190533 -1.673527 -3.086355 10.603264 0.000000 0.000000 0.000000 -2.669560 18.408647 -17.007111 35.939020 -45.470189 15.479298 14.873068 9.199529 -43.954706 0.000000 0.000000 0.000000 -7.125000 0.000000 0.000000 -37.071272 71.898465 24.690757 0.000000 0.000000 0.000000 -19.505400 -12.809635 -27.665415 -14.597848 -23.575153 -3.068013 -14.846377 -4.770432 1.810445 0.000000 0.000000 0.000000 7.125000 0.000000 0.000000 9.394772 31.763224 3.080286
4.522683 17.601658 2.203900 -1.928711 -18.943930 -1.452555 0.000000 0.000000 0.000000 -5.472672 -12.563488 -26.219068 4.190528 12.405865 37.189001 0.166272 5.528885 -11.667277 0.565444 -4.802700 -13.349454 0.000000 0.000000 0.000000 23.379518 14.323937 -8.297580 -5.162428 -13.564184 41.519434 -1.276674 -6.059997 -24.316877 -0.000736 -0.179121 0.492090 2.199500 -0.512293 30.003997 8.713602 0.967102 4.700582 7.832024 0.412875 -10.802284 -5.266574 -4.597312 -9.122203 -5.653689 -4.131592 27.960928 -1.602565 -3.119186 10.474334 0.000000 0.000000 0.000000 -2.750371 18.494970 -16.892712 36.246133 -45.681650 15.698387 15.174403 8.314947 -44.069024 0.000000 0.000000 0.000000 -7.125000 0.000000 0.000000 -36.999445 72.087998 24.784822 0.000000 0.000000 0.000000 -19.077881 -12.103328 -26.376789 -15.430092 -24.738516 -3.405816 -15.722436 -7.617230 1.889495 0.000000 0.000000 0.000000 7.125000 0.000000 0.000000 8.707426 31.864490 2.826707
